<svg width="1540" height="763" viewBox="0 0 1540 763" fill="none" xmlns="http://www.w3.org/2000/svg">
<path d="M769.892 1373.13C1205.83 1373.13 1559.24 1036.21 1559.24 620.604C1559.24 204.998 1205.83 -131.917 769.892 -131.917C333.949 -131.917 -19.4526 204.998 -19.4526 620.604C-19.4526 1036.21 333.949 1373.13 769.892 1373.13Z" stroke="black" stroke-opacity="0.07" style="mix-blend-mode:color-dodge" stroke-width="3.6" stroke-miterlimit="10"/>
<path d="M769.891 1344.04C1188.99 1344.04 1528.73 1020.15 1528.73 620.604C1528.73 221.059 1188.99 -102.836 769.891 -102.836C350.794 -102.836 11.0498 221.059 11.0498 620.604C11.0498 1020.15 350.794 1344.04 769.891 1344.04Z" stroke="black" stroke-opacity="0.07" style="mix-blend-mode:color-dodge" stroke-width="3.6" stroke-miterlimit="10"/>
<path d="M769.894 1314.96C1172.14 1314.96 1498.22 1004.08 1498.22 620.604C1498.22 237.125 1172.14 -73.7471 769.894 -73.7471C367.65 -73.7471 41.5659 237.125 41.5659 620.604C41.5659 1004.08 367.65 1314.96 769.894 1314.96Z" stroke="black" stroke-opacity="0.07" style="mix-blend-mode:color-dodge" stroke-width="3.6" stroke-miterlimit="10"/>
<path d="M769.893 1285.87C1155.29 1285.87 1467.72 988.023 1467.72 620.604C1467.72 253.185 1155.29 -44.6665 769.893 -44.6665C384.495 -44.6665 72.0682 253.185 72.0682 620.604C72.0682 988.023 384.495 1285.87 769.893 1285.87Z" stroke="black" stroke-opacity="0.07" style="mix-blend-mode:color-dodge" stroke-width="3.6" stroke-miterlimit="10"/>
<path d="M769.891 1256.79C1138.44 1256.79 1437.21 971.962 1437.21 620.604C1437.21 269.246 1138.44 -15.5859 769.891 -15.5859C401.34 -15.5859 102.571 269.246 102.571 620.604C102.571 971.962 401.34 1256.79 769.891 1256.79Z" stroke="black" stroke-opacity="0.07" style="mix-blend-mode:color-dodge" stroke-width="3.6" stroke-miterlimit="10"/>
<path d="M769.894 1227.71C1121.6 1227.71 1406.71 955.901 1406.71 620.604C1406.71 285.307 1121.6 13.4951 769.894 13.4951C418.19 13.4951 133.077 285.307 133.077 620.604C133.077 955.901 418.19 1227.71 769.894 1227.71Z" stroke="black" stroke-opacity="0.07" style="mix-blend-mode:color-dodge" stroke-width="3.6" stroke-miterlimit="10"/>
<path d="M769.892 1198.62C1104.74 1198.62 1376.2 939.836 1376.2 620.604C1376.2 301.373 1104.74 42.5845 769.892 42.5845C435.04 42.5845 163.588 301.373 163.588 620.604C163.588 939.836 435.04 1198.62 769.892 1198.62Z" stroke="black" stroke-opacity="0.07" style="mix-blend-mode:color-dodge" stroke-width="3.6" stroke-miterlimit="10"/>
<path d="M769.891 1169.54C1087.9 1169.54 1345.69 923.775 1345.69 620.604C1345.69 317.433 1087.9 71.665 769.891 71.665C451.885 71.665 194.09 317.433 194.09 620.604C194.09 923.775 451.885 1169.54 769.891 1169.54Z" stroke="black" stroke-opacity="0.07" style="mix-blend-mode:color-dodge" stroke-width="3.6" stroke-miterlimit="10"/>
<path d="M769.892 1140.46C1071.05 1140.46 1315.19 907.714 1315.19 620.604C1315.19 333.495 1071.05 100.746 769.892 100.746C468.733 100.746 224.595 333.495 224.595 620.604C224.595 907.714 468.733 1140.46 769.892 1140.46Z" stroke="black" stroke-opacity="0.07" style="mix-blend-mode:color-dodge" stroke-width="3.6" stroke-miterlimit="10"/>
<path d="M769.89 1111.38C1054.2 1111.38 1284.68 891.653 1284.68 620.604C1284.68 349.555 1054.2 129.827 769.89 129.827C485.578 129.827 255.097 349.555 255.097 620.604C255.097 891.653 485.578 1111.38 769.89 1111.38Z" stroke="black" stroke-opacity="0.07" style="mix-blend-mode:color-dodge" stroke-width="3.6" stroke-miterlimit="10"/>
<path d="M769.893 1082.29C1037.35 1082.29 1254.17 875.588 1254.17 620.604C1254.17 365.621 1037.35 158.916 769.893 158.916C502.432 158.916 285.612 365.621 285.612 620.604C285.612 875.588 502.432 1082.29 769.893 1082.29Z" stroke="black" stroke-opacity="0.07" style="mix-blend-mode:color-dodge" stroke-width="3.6" stroke-miterlimit="10"/>
<path d="M769.892 1053.21C1020.51 1053.21 1223.67 859.527 1223.67 620.604C1223.67 381.681 1020.51 187.996 769.892 187.996C519.278 187.996 316.115 381.681 316.115 620.604C316.115 859.527 519.278 1053.21 769.892 1053.21Z" stroke="black" stroke-opacity="0.07" style="mix-blend-mode:color-dodge" stroke-width="3.6" stroke-miterlimit="10"/>
<path d="M769.89 1024.13C1003.66 1024.13 1193.16 843.466 1193.16 620.604C1193.16 397.742 1003.66 217.077 769.89 217.077C536.123 217.077 346.617 397.742 346.617 620.604C346.617 843.466 536.123 1024.13 769.89 1024.13Z" stroke="black" stroke-opacity="0.07" style="mix-blend-mode:color-dodge" stroke-width="3.6" stroke-miterlimit="10"/>
<path d="M769.893 995.051C986.813 995.051 1162.66 827.405 1162.66 620.604C1162.66 413.803 986.813 246.158 769.893 246.158C552.972 246.158 377.124 413.803 377.124 620.604C377.124 827.405 552.972 995.051 769.893 995.051Z" stroke="black" stroke-opacity="0.07" style="mix-blend-mode:color-dodge" stroke-width="3.6" stroke-miterlimit="10"/>
<path d="M769.892 965.961C969.961 965.961 1132.15 811.34 1132.15 620.604C1132.15 429.869 969.961 275.247 769.892 275.247C569.823 275.247 407.635 429.869 407.635 620.604C407.635 811.34 569.823 965.961 769.892 965.961Z" stroke="black" stroke-opacity="0.07" style="mix-blend-mode:color-dodge" stroke-width="3.6" stroke-miterlimit="10"/>
<path d="M769.893 936.881C953.115 936.881 1101.65 795.279 1101.65 620.604C1101.65 445.93 953.115 304.328 769.893 304.328C586.671 304.328 438.14 445.93 438.14 620.604C438.14 795.279 586.671 936.881 769.893 936.881Z" stroke="black" stroke-opacity="0.07" style="mix-blend-mode:color-dodge" stroke-width="3.6" stroke-miterlimit="10"/>
<path d="M769.892 907.8C936.267 907.8 1071.14 779.218 1071.14 620.604C1071.14 461.99 936.267 333.409 769.892 333.409C603.516 333.409 468.643 461.99 468.643 620.604C468.643 779.218 603.516 907.8 769.892 907.8Z" stroke="black" stroke-opacity="0.07" style="mix-blend-mode:color-dodge" stroke-width="3.6" stroke-miterlimit="10"/>
<path d="M769.892 878.719C919.421 878.719 1040.64 763.157 1040.64 620.604C1040.64 478.051 919.421 362.489 769.892 362.489C620.364 362.489 499.147 478.051 499.147 620.604C499.147 763.157 620.364 878.719 769.892 878.719Z" stroke="black" stroke-opacity="0.07" style="mix-blend-mode:color-dodge" stroke-width="3.6" stroke-miterlimit="10"/>
<path d="M769.892 849.63C902.569 849.63 1010.13 747.092 1010.13 620.604C1010.13 494.117 902.569 391.579 769.892 391.579C637.216 391.579 529.66 494.117 529.66 620.604C529.66 747.092 637.216 849.63 769.892 849.63Z" stroke="black" stroke-opacity="0.07" style="mix-blend-mode:color-dodge" stroke-width="3.6" stroke-miterlimit="10"/>
<path d="M769.89 820.549C885.72 820.549 979.619 731.031 979.619 620.605C979.619 510.178 885.72 420.66 769.89 420.66C654.06 420.66 560.161 510.178 560.161 620.605C560.161 731.031 654.06 820.549 769.89 820.549Z" stroke="black" stroke-opacity="0.07" style="mix-blend-mode:color-dodge" stroke-width="3.6" stroke-miterlimit="10"/>
<path d="M769.891 791.468C868.874 791.468 949.116 714.97 949.116 620.604C949.116 526.239 868.874 449.74 769.891 449.74C670.908 449.74 590.666 526.239 590.666 620.604C590.666 714.97 670.908 791.468 769.891 791.468Z" stroke="black" stroke-opacity="0.07" style="mix-blend-mode:color-dodge" stroke-width="3.6" stroke-miterlimit="10"/>
<path d="M769.889 762.387C852.026 762.387 918.611 698.909 918.611 620.604C918.611 542.299 852.026 478.821 769.889 478.821C687.753 478.821 621.168 542.299 621.168 620.604C621.168 698.909 687.753 762.387 769.889 762.387Z" stroke="black" stroke-opacity="0.07" style="mix-blend-mode:color-dodge" stroke-width="3.6" stroke-miterlimit="10"/>
<path d="M769.891 733.299C835.176 733.299 888.1 682.844 888.1 620.604C888.1 558.365 835.176 507.91 769.891 507.91C704.606 507.91 651.682 558.365 651.682 620.604C651.682 682.844 704.606 733.299 769.891 733.299Z" stroke="black" stroke-opacity="0.07" style="mix-blend-mode:color-dodge" stroke-width="3.6" stroke-miterlimit="10"/>
<path d="M769.892 704.218C818.33 704.218 857.597 666.783 857.597 620.605C857.597 574.426 818.33 536.991 769.892 536.991C721.453 536.991 682.187 574.426 682.187 620.605C682.187 666.783 721.453 704.218 769.892 704.218Z" stroke="black" stroke-opacity="0.07" style="mix-blend-mode:color-dodge" stroke-width="3.6" stroke-miterlimit="10"/>
</svg>
