<svg width="881" height="299" viewBox="0 0 881 299" fill="none" xmlns="http://www.w3.org/2000/svg">
<path d="M440.5 34.4443C562.106 34.4443 672.181 49.274 751.837 73.2393C791.668 85.2228 823.865 99.4828 846.094 115.294C868.335 131.114 880.5 148.416 880.5 166.473C880.5 184.529 868.335 201.83 846.094 217.65C823.865 233.462 791.668 247.722 751.837 259.705C672.181 283.67 562.106 298.5 440.5 298.5C318.894 298.5 208.819 283.67 129.163 259.705C89.3319 247.722 57.1346 233.462 34.9062 217.65C12.6655 201.83 0.500206 184.529 0.5 166.473C0.5 148.416 12.6653 131.114 34.9062 115.294C57.1346 99.4828 89.3319 85.2228 129.163 73.2393C208.819 49.274 318.894 34.4443 440.5 34.4443Z" stroke="url(#paint0_linear_1_427)"/>
<path d="M445 34.4443C550.446 34.4443 645.888 49.2733 714.951 73.2334C749.485 85.2143 777.395 99.4694 796.663 115.273C815.934 131.08 826.5 148.385 826.5 166.473C826.5 184.56 815.934 201.865 796.663 217.672C777.395 233.476 749.485 247.73 714.951 259.711C645.888 283.671 550.446 298.5 445 298.5C339.554 298.5 244.112 283.671 175.049 259.711C140.515 247.73 112.605 233.476 93.3369 217.672C74.0658 201.865 63.5002 184.56 63.5 166.473C63.5 148.385 74.0657 131.08 93.3369 115.273C112.605 99.4694 140.515 85.2143 175.049 73.2334C244.112 49.2733 339.554 34.4443 445 34.4443Z" stroke="url(#paint1_linear_1_427)"/>
<path d="M455.5 34.4443C551.414 34.4443 638.226 49.2716 701.041 73.2275C732.45 85.2062 757.834 99.4583 775.356 115.258C792.879 131.058 802.5 148.365 802.5 166.473C802.5 184.58 792.879 201.887 775.356 217.687C757.834 233.486 732.45 247.738 701.041 259.717C638.226 283.673 551.414 298.5 455.5 298.5C359.586 298.5 272.774 283.673 209.959 259.717C178.55 247.738 153.166 233.486 135.644 217.687C118.121 201.887 108.5 184.58 108.5 166.473C108.5 148.365 118.121 131.058 135.644 115.258C153.166 99.4583 178.55 85.2062 209.959 73.2275C272.774 49.2716 359.586 34.4443 455.5 34.4443Z" stroke="url(#paint2_linear_1_427)"/>
<path d="M445 0.5C487.152 0.5 525.294 13.3423 552.887 34.082C580.48 54.8217 597.5 83.4358 597.5 115C597.5 146.564 580.48 175.178 552.887 195.918C525.294 216.658 487.152 229.5 445 229.5C402.848 229.5 364.706 216.658 337.113 195.918C309.52 175.178 292.5 146.564 292.5 115C292.5 83.4358 309.52 54.8217 337.113 34.082C364.706 13.3423 402.848 0.5 445 0.5Z" stroke="url(#paint3_linear_1_427)"/>
<path d="M444.5 76.6091C485.175 76.6091 521.975 84.2764 548.588 96.6501C575.241 109.043 591.5 126.064 591.5 144.691C591.5 163.319 575.241 180.339 548.588 192.732C521.975 205.106 485.175 212.773 444.5 212.773C403.825 212.773 367.025 205.106 340.412 192.732C313.759 180.339 297.5 163.319 297.5 144.691C297.5 126.064 313.759 109.043 340.412 96.6501C367.025 84.2764 403.825 76.6091 444.5 76.6091Z" stroke="url(#paint4_linear_1_427)"/>
<defs>
<linearGradient id="paint0_linear_1_427" x1="440.5" y1="33.9443" x2="440.5" y2="299" gradientUnits="userSpaceOnUse">
<stop stop-opacity="0"/>
<stop offset="0.479167" stop-color="#A1FF75"/>
</linearGradient>
<linearGradient id="paint1_linear_1_427" x1="445" y1="33.9443" x2="445" y2="299" gradientUnits="userSpaceOnUse">
<stop stop-opacity="0"/>
<stop offset="0.479167" stop-color="#A1FF75"/>
</linearGradient>
<linearGradient id="paint2_linear_1_427" x1="455.5" y1="33.9443" x2="455.5" y2="299" gradientUnits="userSpaceOnUse">
<stop stop-opacity="0"/>
<stop offset="0.479167" stop-color="#A1FF75"/>
</linearGradient>
<linearGradient id="paint3_linear_1_427" x1="445" y1="0" x2="445" y2="230" gradientUnits="userSpaceOnUse">
<stop offset="0.197917" stop-opacity="0"/>
<stop offset="1" stop-color="#A1FF75"/>
</linearGradient>
<linearGradient id="paint4_linear_1_427" x1="444.5" y1="76.1091" x2="444.5" y2="213.273" gradientUnits="userSpaceOnUse">
<stop offset="0.197917" stop-opacity="0"/>
<stop offset="1" stop-color="#A1FF75"/>
</linearGradient>
</defs>
</svg>
